<svg xmlns="http://www.w3.org/2000/svg" style="isolation:isolate" viewBox="0 0 160 160"><defs><clipPath id="a"><path d="M0 0h160v160H0z"/></clipPath></defs><g clip-path="url(#a)"><path d="M62.222 0h8.889v8.889h-8.889zM71.111 0H80v8.889h-8.889zM80 0h8.889v8.889H80zM88.889 0h8.889v8.889h-8.889zM53.333 8.889h8.889v8.889h-8.889zM62.222 8.889h8.889v8.889h-8.889zM71.111 8.889H80v8.889h-8.889zM80 8.889h8.889v8.889H80zM88.889 8.889h8.889v8.889h-8.889zM97.778 8.889h8.889v8.889h-8.889zM44.444 17.778h8.889v8.889h-8.889zM53.333 17.778h8.889v8.889h-8.889zM62.222 17.778h8.889v8.889h-8.889zM71.111 17.778H80v8.889h-8.889zM80 17.778h8.889v8.889H80zM88.889 17.778h8.889v8.889h-8.889zM97.778 17.778h8.889v8.889h-8.889zM106.667 17.778h8.889v8.889h-8.889zM44.444 26.667h8.889v8.889h-8.889zM53.333 26.667h8.889v8.889h-8.889zM62.222 26.667h8.889v8.889h-8.889zM71.111 26.667H80v8.889h-8.889zM80 26.667h8.889v8.889H80zM88.889 26.667h8.889v8.889h-8.889zM97.778 26.667h8.889v8.889h-8.889zM106.667 26.667h8.889v8.889h-8.889zM44.444 35.556h8.889v8.889h-8.889zM53.333 35.556h8.889v8.889h-8.889zM62.222 35.556h8.889v8.889h-8.889zM71.111 35.556H80v8.889h-8.889zM80 35.556h8.889v8.889H80zM88.889 35.556h8.889v8.889h-8.889zM97.778 35.556h8.889v8.889h-8.889zM106.667 35.556h8.889v8.889h-8.889z"/><path d="M44.444 44.444h8.889v8.889h-8.889zM53.333 44.444h8.889v8.889h-8.889zM62.222 44.444h8.889v8.889h-8.889zM71.111 44.444H80v8.889h-8.889zM80 44.444h8.889v8.889H80zM88.889 44.444h8.889v8.889h-8.889zM97.778 44.444h8.889v8.889h-8.889zM106.667 44.444h8.889v8.889h-8.889zM53.333 53.333h8.889v8.889h-8.889zM62.222 53.333h8.889v8.889h-8.889zM71.111 53.333H80v8.889h-8.889zM80 53.333h8.889v8.889H80zM88.889 53.333h8.889v8.889h-8.889zM97.778 53.333h8.889v8.889h-8.889zM17.778 62.222h8.889v8.889h-8.889zM26.667 62.222h8.889v8.889h-8.889zM35.556 62.222h8.889v8.889h-8.889z"/><path d="M44.444 62.222h8.889v8.889h-8.889zM62.222 62.222h8.889v8.889h-8.889zM71.111 62.222H80v8.889h-8.889zM80 62.222h8.889v8.889H80zM88.889 62.222h8.889v8.889h-8.889zM106.667 62.222h8.889v8.889h-8.889zM115.556 62.222h8.889v8.889h-8.889z"/><path d="M124.444 62.222h8.889v8.889h-8.889zM133.333 62.222h8.889v8.889h-8.889zM8.889 71.111h8.889V80H8.889zM17.778 71.111h8.889V80h-8.889zM26.667 71.111h8.889V80h-8.889zM35.556 71.111h8.889V80h-8.889z"/><path d="M44.444 71.111h8.889V80h-8.889zM53.333 71.111h8.889V80h-8.889zM62.222 71.111h8.889V80h-8.889zM71.111 71.111H80V80h-8.889zM80 71.111h8.889V80H80zM88.889 71.111h8.889V80h-8.889zM97.778 71.111h8.889V80h-8.889zM106.667 71.111h8.889V80h-8.889zM115.556 71.111h8.889V80h-8.889z"/><path d="M124.444 71.111h8.889V80h-8.889zM133.333 71.111h8.889V80h-8.889zM142.222 71.111h8.889V80h-8.889zM0 80h8.889v8.889H0zM8.889 80h8.889v8.889H8.889zM17.778 80h8.889v8.889h-8.889zM26.667 80h8.889v8.889h-8.889zM35.556 80h8.889v8.889h-8.889z"/><path d="M44.444 80h8.889v8.889h-8.889zM53.333 80h8.889v8.889h-8.889zM62.222 80h8.889v8.889h-8.889zM71.111 80H80v8.889h-8.889zM80 80h8.889v8.889H80zM88.889 80h8.889v8.889h-8.889zM97.778 80h8.889v8.889h-8.889zM106.667 80h8.889v8.889h-8.889zM115.556 80h8.889v8.889h-8.889z"/><path d="M124.444 80h8.889v8.889h-8.889zM133.333 80h8.889v8.889h-8.889zM142.222 80h8.889v8.889h-8.889z"/><path d="M151.111 80H160v8.889h-8.889zM0 88.889h8.889v8.889H0zM8.889 88.889h8.889v8.889H8.889zM17.778 88.889h8.889v8.889h-8.889zM26.667 88.889h8.889v8.889h-8.889zM35.556 88.889h8.889v8.889h-8.889z"/><path d="M44.444 88.889h8.889v8.889h-8.889zM53.333 88.889h8.889v8.889h-8.889zM62.222 88.889h8.889v8.889h-8.889zM71.111 88.889H80v8.889h-8.889zM80 88.889h8.889v8.889H80zM88.889 88.889h8.889v8.889h-8.889zM97.778 88.889h8.889v8.889h-8.889zM106.667 88.889h8.889v8.889h-8.889zM115.556 88.889h8.889v8.889h-8.889z"/><path d="M124.444 88.889h8.889v8.889h-8.889zM133.333 88.889h8.889v8.889h-8.889zM142.222 88.889h8.889v8.889h-8.889z"/><path d="M151.111 88.889H160v8.889h-8.889zM0 97.778h8.889v8.889H0zM8.889 97.778h8.889v8.889H8.889zM17.778 97.778h8.889v8.889h-8.889zM26.667 97.778h8.889v8.889h-8.889zM35.556 97.778h8.889v8.889h-8.889z"/><path d="M44.444 97.778h8.889v8.889h-8.889zM53.333 97.778h8.889v8.889h-8.889zM62.222 97.778h8.889v8.889h-8.889zM71.111 97.778H80v8.889h-8.889zM80 97.778h8.889v8.889H80zM88.889 97.778h8.889v8.889h-8.889zM97.778 97.778h8.889v8.889h-8.889zM106.667 97.778h8.889v8.889h-8.889zM115.556 97.778h8.889v8.889h-8.889z"/><path d="M124.444 97.778h8.889v8.889h-8.889zM133.333 97.778h8.889v8.889h-8.889zM142.222 97.778h8.889v8.889h-8.889z"/><path d="M151.111 97.778H160v8.889h-8.889zM8.889 106.667h8.889v8.889H8.889zM17.778 106.667h8.889v8.889h-8.889zM26.667 106.667h8.889v8.889h-8.889zM35.556 106.667h8.889v8.889h-8.889z"/><path d="M44.444 106.667h8.889v8.889h-8.889zM53.333 106.667h8.889v8.889h-8.889zM62.222 106.667h8.889v8.889h-8.889zM71.111 106.667H80v8.889h-8.889zM80 106.667h8.889v8.889H80zM88.889 106.667h8.889v8.889h-8.889zM97.778 106.667h8.889v8.889h-8.889zM106.667 106.667h8.889v8.889h-8.889zM115.556 106.667h8.889v8.889h-8.889z"/><path d="M124.444 106.667h8.889v8.889h-8.889zM133.333 106.667h8.889v8.889h-8.889zM142.222 106.667h8.889v8.889h-8.889zM17.778 115.556h8.889v8.889h-8.889zM26.667 115.556h8.889v8.889h-8.889zM35.556 115.556h8.889v8.889h-8.889z"/><path d="M44.444 115.556h8.889v8.889h-8.889zM53.333 115.556h8.889v8.889h-8.889zM71.111 115.556H80v8.889h-8.889zM80 115.556h8.889v8.889H80zM97.778 115.556h8.889v8.889h-8.889zM106.667 115.556h8.889v8.889h-8.889zM115.556 115.556h8.889v8.889h-8.889z"/><path d="M124.444 115.556h8.889v8.889h-8.889zM133.333 115.556h8.889v8.889h-8.889zM26.667 124.444h8.889v8.889h-8.889zM35.556 124.444h8.889v8.889h-8.889zM71.111 124.444H80v8.889h-8.889zM80 124.444h8.889v8.889H80z"/><path d="M115.556 124.444h8.889v8.889h-8.889z"/><path d="M124.444 124.444h8.889v8.889h-8.889zM62.222 133.333h8.889v8.889h-8.889zM71.111 133.333H80v8.889h-8.889zM80 133.333h8.889v8.889H80zM88.889 133.333h8.889v8.889h-8.889zM53.333 142.222h8.889v8.889h-8.889zM62.222 142.222h8.889v8.889h-8.889zM71.111 142.222H80v8.889h-8.889zM80 142.222h8.889v8.889H80zM88.889 142.222h8.889v8.889h-8.889zM97.778 142.222h8.889v8.889h-8.889zM44.444 151.111h8.889V160h-8.889z"/><path d="M53.333 151.111h8.889V160h-8.889zM62.222 151.111h8.889V160h-8.889zM71.111 151.111H80V160h-8.889zM80 151.111h8.889V160H80zM88.889 151.111h8.889V160h-8.889zM97.778 151.111h8.889V160h-8.889zM106.667 151.111h8.889V160h-8.889z"/></g></svg>