<svg xmlns="http://www.w3.org/2000/svg" style="isolation:isolate" viewBox="0 0 160 160"><defs><clipPath id="a"><path d="M0 0h160v160H0z"/></clipPath></defs><g clip-path="url(#a)"><path d="M75.222 0h9.556v9.412h-9.556V0zm0 9.412h9.556v9.412h-9.556V9.412zm-9.555 9.412h9.555v9.411h-9.555v-9.411zm9.555 0h9.556v9.411h-9.556v-9.411zm9.556 0h9.555v9.411h-9.555v-9.411zm-19.111 9.411h9.555v9.412h-9.555v-9.412zm9.555 0h9.556v9.412h-9.556v-9.412zm9.556 0h9.555v9.412h-9.555v-9.412zm-28.667 9.412h9.556v9.412h-9.556v-9.412zm9.556 0h9.555v9.412h-9.555v-9.412zm9.555 0h9.556v9.412h-9.556v-9.412zm9.556 0h9.555v9.412h-9.555v-9.412zm9.555 0h9.556v9.412h-9.556v-9.412zm-38.222 9.412h9.556v9.412h-9.556v-9.412zm9.556 0h9.555v9.412h-9.555v-9.412zm9.555 0h9.556v9.412h-9.556v-9.412zm9.556 0h9.555v9.412h-9.555v-9.412zm9.555 0h9.556v9.412h-9.556v-9.412zm-47.777 9.412h9.555v9.411h-9.555v-9.411zm9.555 0h9.556v9.411h-9.556v-9.411zm9.556 0h9.555v9.411h-9.555v-9.411zm9.555 0h9.556v9.411h-9.556v-9.411zm9.556 0h9.555v9.411h-9.555v-9.411zm9.555 0h9.556v9.411h-9.556v-9.411zm9.556 0h9.555v9.411h-9.555v-9.411zm-57.333 9.411h9.555v9.412h-9.555v-9.412zm9.555 0h9.556v9.412h-9.556v-9.412zm9.556 0h9.555v9.412h-9.555v-9.412zm9.555 0h9.556v9.412h-9.556v-9.412zm9.556 0h9.555v9.412h-9.555v-9.412zm9.555 0h9.556v9.412h-9.556v-9.412zm9.556 0h9.555v9.412h-9.555v-9.412zM37 75.294h9.556v9.412H37v-9.412zm9.556 0h9.555v9.412h-9.555v-9.412zm9.555 0h9.556v9.412h-9.556v-9.412zm9.556 0h9.555v9.412h-9.555v-9.412zm9.555 0h9.556v9.412h-9.556v-9.412zm9.556 0h9.555v9.412h-9.555v-9.412zm9.555 0h9.556v9.412h-9.556v-9.412zm9.556 0h9.555v9.412h-9.555v-9.412zm9.555 0H123v9.412h-9.556v-9.412zm-66.888 9.412h9.555v9.412h-9.555v-9.412zm9.555 0h9.556v9.412h-9.556v-9.412zm9.556 0h9.555v9.412h-9.555v-9.412zm9.555 0h9.556v9.412h-9.556v-9.412zm9.556 0h9.555v9.412h-9.555v-9.412zm9.555 0h9.556v9.412h-9.556v-9.412zm9.556 0h9.555v9.412h-9.555v-9.412zm-57.333 9.412h9.555v9.411h-9.555v-9.411zm9.555 0h9.556v9.411h-9.556v-9.411zm9.556 0h9.555v9.411h-9.555v-9.411zm9.555 0h9.556v9.411h-9.556v-9.411zm9.556 0h9.555v9.411h-9.555v-9.411zm9.555 0h9.556v9.411h-9.556v-9.411zm9.556 0h9.555v9.411h-9.555v-9.411zm-47.778 9.411h9.556v9.412h-9.556v-9.412zm9.556 0h9.555v9.412h-9.555v-9.412zm9.555 0h9.556v9.412h-9.556v-9.412zm9.556 0h9.555v9.412h-9.555v-9.412zm9.555 0h9.556v9.412h-9.556v-9.412zm-38.222 9.412h9.556v9.412h-9.556v-9.412zm9.556 0h9.555v9.412h-9.555v-9.412zm9.555 0h9.556v9.412h-9.556v-9.412zm9.556 0h9.555v9.412h-9.555v-9.412zm9.555 0h9.556v9.412h-9.556v-9.412zm-28.666 9.412h9.555v9.412h-9.555v-9.412zm9.555 0h9.556v9.412h-9.556v-9.412zm9.556 0h9.555v9.412h-9.555v-9.412zm-19.111 9.412h9.555v9.411h-9.555v-9.411zm9.555 0h9.556v9.411h-9.556v-9.411zm9.556 0h9.555v9.411h-9.555v-9.411zm-9.556 9.411h9.556v9.412h-9.556v-9.412zm0 9.412h9.556V160h-9.556v-9.412z" fill="red"/></g></svg>