<svg xmlns="http://www.w3.org/2000/svg" style="isolation:isolate" viewBox="0 0 160 160"><defs><clipPath id="a"><path d="M0 0h160v160H0z"/></clipPath></defs><g clip-path="url(#a)"><path d="M26.667 13.333h8.889v8.889h-8.889v-8.889zm8.889 0h8.888v8.889h-8.888v-8.889zm80 0h8.888v8.889h-8.888v-8.889zm8.888 0h8.889v8.889h-8.889v-8.889zM17.778 22.222h8.889v8.889h-8.889v-8.889zm8.889 0h8.889v8.889h-8.889v-8.889zm8.889 0h8.888v8.889h-8.888v-8.889zm8.888 0h8.889v8.889h-8.889v-8.889zm8.889 0h8.889v8.889h-8.889v-8.889zm44.445 0h8.889v8.889h-8.889v-8.889zm8.889 0h8.889v8.889h-8.889v-8.889zm8.889 0h8.888v8.889h-8.888v-8.889zm8.888 0h8.889v8.889h-8.889v-8.889zm8.889 0h8.889v8.889h-8.889v-8.889zM8.889 31.111h8.889V40H8.889v-8.889zm8.889 0h8.889V40h-8.889v-8.889zm8.889 0h8.889V40h-8.889v-8.889zm8.889 0h8.888V40h-8.888v-8.889zm8.888 0h8.889V40h-8.889v-8.889zm8.889 0h8.889V40h-8.889v-8.889zm8.889 0h8.889V40h-8.889v-8.889zm26.667 0h8.889V40h-8.889v-8.889zm8.889 0h8.889V40h-8.889v-8.889zm8.889 0h8.889V40h-8.889v-8.889zm8.889 0h8.888V40h-8.888v-8.889zm8.888 0h8.889V40h-8.889v-8.889zm8.889 0h8.889V40h-8.889v-8.889zm8.889 0h8.889V40h-8.889v-8.889zM0 40h8.889v8.889H0V40zm8.889 0h8.889v8.889H8.889V40zm8.889 0h8.889v8.889h-8.889V40zm8.889 0h8.889v8.889h-8.889V40zm8.889 0h8.888v8.889h-8.888V40zm8.888 0h8.889v8.889h-8.889V40zm8.889 0h8.889v8.889h-8.889V40zm8.889 0h8.889v8.889h-8.889V40zm8.889 0H80v8.889h-8.889V40zM80 40h8.889v8.889H80V40zm8.889 0h8.889v8.889h-8.889V40zm8.889 0h8.889v8.889h-8.889V40zm8.889 0h8.889v8.889h-8.889V40zm8.889 0h8.888v8.889h-8.888V40zm8.888 0h8.889v8.889h-8.889V40zm8.889 0h8.889v8.889h-8.889V40zm8.889 0h8.889v8.889h-8.889V40zm8.889 0H160v8.889h-8.889V40zM0 48.889h8.889v8.889H0v-8.889zm8.889 0h8.889v8.889H8.889v-8.889zm8.889 0h8.889v8.889h-8.889v-8.889zm8.889 0h8.889v8.889h-8.889v-8.889zm8.889 0h8.888v8.889h-8.888v-8.889zm8.888 0h8.889v8.889h-8.889v-8.889zm8.889 0h8.889v8.889h-8.889v-8.889zm8.889 0h8.889v8.889h-8.889v-8.889zm8.889 0H80v8.889h-8.889v-8.889zm8.889 0h8.889v8.889H80v-8.889zm8.889 0h8.889v8.889h-8.889v-8.889zm8.889 0h8.889v8.889h-8.889v-8.889zm8.889 0h8.889v8.889h-8.889v-8.889zm8.889 0h8.888v8.889h-8.888v-8.889zm8.888 0h8.889v8.889h-8.889v-8.889zm8.889 0h8.889v8.889h-8.889v-8.889zm8.889 0h8.889v8.889h-8.889v-8.889zm8.889 0H160v8.889h-8.889v-8.889zM0 57.778h8.889v8.889H0v-8.889zm8.889 0h8.889v8.889H8.889v-8.889zm8.889 0h8.889v8.889h-8.889v-8.889zm8.889 0h8.889v8.889h-8.889v-8.889zm8.889 0h8.888v8.889h-8.888v-8.889zm8.888 0h8.889v8.889h-8.889v-8.889zm8.889 0h8.889v8.889h-8.889v-8.889zm8.889 0h8.889v8.889h-8.889v-8.889zm8.889 0H80v8.889h-8.889v-8.889zm8.889 0h8.889v8.889H80v-8.889zm8.889 0h8.889v8.889h-8.889v-8.889zm8.889 0h8.889v8.889h-8.889v-8.889zm8.889 0h8.889v8.889h-8.889v-8.889zm8.889 0h8.888v8.889h-8.888v-8.889zm8.888 0h8.889v8.889h-8.889v-8.889zm8.889 0h8.889v8.889h-8.889v-8.889zm8.889 0h8.889v8.889h-8.889v-8.889zm8.889 0H160v8.889h-8.889v-8.889zM8.889 66.667h8.889v8.889H8.889v-8.889zm8.889 0h8.889v8.889h-8.889v-8.889zm8.889 0h8.889v8.889h-8.889v-8.889zm8.889 0h8.888v8.889h-8.888v-8.889zm8.888 0h8.889v8.889h-8.889v-8.889zm8.889 0h8.889v8.889h-8.889v-8.889zm8.889 0h8.889v8.889h-8.889v-8.889zm8.889 0H80v8.889h-8.889v-8.889zm8.889 0h8.889v8.889H80v-8.889zm8.889 0h8.889v8.889h-8.889v-8.889zm8.889 0h8.889v8.889h-8.889v-8.889zm8.889 0h8.889v8.889h-8.889v-8.889zm8.889 0h8.888v8.889h-8.888v-8.889zm8.888 0h8.889v8.889h-8.889v-8.889zm8.889 0h8.889v8.889h-8.889v-8.889zm8.889 0h8.889v8.889h-8.889v-8.889zM8.889 75.556h8.889v8.888H8.889v-8.888zm8.889 0h8.889v8.888h-8.889v-8.888zm8.889 0h8.889v8.888h-8.889v-8.888zm8.889 0h8.888v8.888h-8.888v-8.888zm8.888 0h8.889v8.888h-8.889v-8.888zm8.889 0h8.889v8.888h-8.889v-8.888zm8.889 0h8.889v8.888h-8.889v-8.888zm8.889 0H80v8.888h-8.889v-8.888zm8.889 0h8.889v8.888H80v-8.888zm8.889 0h8.889v8.888h-8.889v-8.888zm8.889 0h8.889v8.888h-8.889v-8.888zm8.889 0h8.889v8.888h-8.889v-8.888zm8.889 0h8.888v8.888h-8.888v-8.888zm8.888 0h8.889v8.888h-8.889v-8.888zm8.889 0h8.889v8.888h-8.889v-8.888zm8.889 0h8.889v8.888h-8.889v-8.888zM17.778 84.444h8.889v8.889h-8.889v-8.889zm8.889 0h8.889v8.889h-8.889v-8.889zm8.889 0h8.888v8.889h-8.888v-8.889zm8.888 0h8.889v8.889h-8.889v-8.889zm8.889 0h8.889v8.889h-8.889v-8.889zm8.889 0h8.889v8.889h-8.889v-8.889zm8.889 0H80v8.889h-8.889v-8.889zm8.889 0h8.889v8.889H80v-8.889zm8.889 0h8.889v8.889h-8.889v-8.889zm8.889 0h8.889v8.889h-8.889v-8.889zm8.889 0h8.889v8.889h-8.889v-8.889zm8.889 0h8.888v8.889h-8.888v-8.889zm8.888 0h8.889v8.889h-8.889v-8.889zm8.889 0h8.889v8.889h-8.889v-8.889zM26.667 93.333h8.889v8.889h-8.889v-8.889zm8.889 0h8.888v8.889h-8.888v-8.889zm8.888 0h8.889v8.889h-8.889v-8.889zm8.889 0h8.889v8.889h-8.889v-8.889zm8.889 0h8.889v8.889h-8.889v-8.889zm8.889 0H80v8.889h-8.889v-8.889zm8.889 0h8.889v8.889H80v-8.889zm8.889 0h8.889v8.889h-8.889v-8.889zm8.889 0h8.889v8.889h-8.889v-8.889zm8.889 0h8.889v8.889h-8.889v-8.889zm8.889 0h8.888v8.889h-8.888v-8.889zm8.888 0h8.889v8.889h-8.889v-8.889zm-88.888 8.889h8.888v8.889h-8.888v-8.889zm8.888 0h8.889v8.889h-8.889v-8.889zm8.889 0h8.889v8.889h-8.889v-8.889zm8.889 0h8.889v8.889h-8.889v-8.889zm8.889 0H80v8.889h-8.889v-8.889zm8.889 0h8.889v8.889H80v-8.889zm8.889 0h8.889v8.889h-8.889v-8.889zm8.889 0h8.889v8.889h-8.889v-8.889zm8.889 0h8.889v8.889h-8.889v-8.889zm8.889 0h8.888v8.889h-8.888v-8.889zm-71.112 8.889h8.889V120h-8.889v-8.889zm8.889 0h8.889V120h-8.889v-8.889zm8.889 0h8.889V120h-8.889v-8.889zm8.889 0H80V120h-8.889v-8.889zm8.889 0h8.889V120H80v-8.889zm8.889 0h8.889V120h-8.889v-8.889zm8.889 0h8.889V120h-8.889v-8.889zm8.889 0h8.889V120h-8.889v-8.889zM53.333 120h8.889v8.889h-8.889V120zm8.889 0h8.889v8.889h-8.889V120zm8.889 0H80v8.889h-8.889V120zM80 120h8.889v8.889H80V120zm8.889 0h8.889v8.889h-8.889V120zm8.889 0h8.889v8.889h-8.889V120zm-35.556 8.889h8.889v8.889h-8.889v-8.889zm8.889 0H80v8.889h-8.889v-8.889zm8.889 0h8.889v8.889H80v-8.889zm8.889 0h8.889v8.889h-8.889v-8.889zm-17.778 8.889H80v8.889h-8.889v-8.889zm8.889 0h8.889v8.889H80v-8.889z" fill="red"/></g></svg>