<svg xmlns="http://www.w3.org/2000/svg" style="isolation:isolate" viewBox="0 0 160 160"><defs><clipPath id="a"><path d="M0 0h160v160H0z"/></clipPath></defs><g clip-path="url(#a)"><path d="M71.111 0H80v8.889h-8.889V0zM80 0h8.889v8.889H80V0zM62.222 8.889h8.889v8.889h-8.889V8.889zm8.889 0H80v8.889h-8.889V8.889zm8.889 0h8.889v8.889H80V8.889zm8.889 0h8.889v8.889h-8.889V8.889zm-35.556 8.889h8.889v8.889h-8.889v-8.889zm8.889 0h8.889v8.889h-8.889v-8.889zm8.889 0H80v8.889h-8.889v-8.889zm8.889 0h8.889v8.889H80v-8.889zm8.889 0h8.889v8.889h-8.889v-8.889zm8.889 0h8.889v8.889h-8.889v-8.889zm-53.334 8.889h8.889v8.889h-8.889v-8.889zm8.889 0h8.889v8.889h-8.889v-8.889zm8.889 0h8.889v8.889h-8.889v-8.889zm8.889 0H80v8.889h-8.889v-8.889zm8.889 0h8.889v8.889H80v-8.889zm8.889 0h8.889v8.889h-8.889v-8.889zm8.889 0h8.889v8.889h-8.889v-8.889zm8.889 0h8.889v8.889h-8.889v-8.889zm-71.111 8.889h8.888v8.888h-8.888v-8.888zm8.888 0h8.889v8.888h-8.889v-8.888zm8.889 0h8.889v8.888h-8.889v-8.888zm8.889 0h8.889v8.888h-8.889v-8.888zm8.889 0H80v8.888h-8.889v-8.888zm8.889 0h8.889v8.888H80v-8.888zm8.889 0h8.889v8.888h-8.889v-8.888zm8.889 0h8.889v8.888h-8.889v-8.888zm8.889 0h8.889v8.888h-8.889v-8.888zm8.889 0h8.888v8.888h-8.888v-8.888zm-88.889 8.888h8.889v8.889h-8.889v-8.889zm8.889 0h8.888v8.889h-8.888v-8.889zm8.888 0h8.889v8.889h-8.889v-8.889zm8.889 0h8.889v8.889h-8.889v-8.889zm8.889 0h8.889v8.889h-8.889v-8.889zm8.889 0H80v8.889h-8.889v-8.889zm8.889 0h8.889v8.889H80v-8.889zm8.889 0h8.889v8.889h-8.889v-8.889zm8.889 0h8.889v8.889h-8.889v-8.889zm8.889 0h8.889v8.889h-8.889v-8.889zm8.889 0h8.888v8.889h-8.888v-8.889zm8.888 0h8.889v8.889h-8.889v-8.889zM17.778 53.333h8.889v8.889h-8.889v-8.889zm8.889 0h8.889v8.889h-8.889v-8.889zm8.889 0h8.888v8.889h-8.888v-8.889zm8.888 0h8.889v8.889h-8.889v-8.889zm8.889 0h8.889v8.889h-8.889v-8.889zm8.889 0h8.889v8.889h-8.889v-8.889zm8.889 0H80v8.889h-8.889v-8.889zm8.889 0h8.889v8.889H80v-8.889zm8.889 0h8.889v8.889h-8.889v-8.889zm8.889 0h8.889v8.889h-8.889v-8.889zm8.889 0h8.889v8.889h-8.889v-8.889zm8.889 0h8.888v8.889h-8.888v-8.889zm8.888 0h8.889v8.889h-8.889v-8.889zm8.889 0h8.889v8.889h-8.889v-8.889zM8.889 62.222h8.889v8.889H8.889v-8.889zm8.889 0h8.889v8.889h-8.889v-8.889zm8.889 0h8.889v8.889h-8.889v-8.889zm8.889 0h8.888v8.889h-8.888v-8.889zm8.888 0h8.889v8.889h-8.889v-8.889zm8.889 0h8.889v8.889h-8.889v-8.889zm8.889 0h8.889v8.889h-8.889v-8.889zm8.889 0H80v8.889h-8.889v-8.889zm8.889 0h8.889v8.889H80v-8.889zm8.889 0h8.889v8.889h-8.889v-8.889zm8.889 0h8.889v8.889h-8.889v-8.889zm8.889 0h8.889v8.889h-8.889v-8.889zm8.889 0h8.888v8.889h-8.888v-8.889zm8.888 0h8.889v8.889h-8.889v-8.889zm8.889 0h8.889v8.889h-8.889v-8.889zm8.889 0h8.889v8.889h-8.889v-8.889zM8.889 71.111h8.889V80H8.889v-8.889zm8.889 0h8.889V80h-8.889v-8.889zm8.889 0h8.889V80h-8.889v-8.889zm8.889 0h8.888V80h-8.888v-8.889zm8.888 0h8.889V80h-8.889v-8.889zm8.889 0h8.889V80h-8.889v-8.889zm8.889 0h8.889V80h-8.889v-8.889zm8.889 0H80V80h-8.889v-8.889zm8.889 0h8.889V80H80v-8.889zm8.889 0h8.889V80h-8.889v-8.889zm8.889 0h8.889V80h-8.889v-8.889zm8.889 0h8.889V80h-8.889v-8.889zm8.889 0h8.888V80h-8.888v-8.889zm8.888 0h8.889V80h-8.889v-8.889zm8.889 0h8.889V80h-8.889v-8.889zm8.889 0h8.889V80h-8.889v-8.889zM0 80h8.889v8.889H0V80zm8.889 0h8.889v8.889H8.889V80zm8.889 0h8.889v8.889h-8.889V80zm8.889 0h8.889v8.889h-8.889V80zm8.889 0h8.888v8.889h-8.888V80zm8.888 0h8.889v8.889h-8.889V80zm8.889 0h8.889v8.889h-8.889V80zm8.889 0h8.889v8.889h-8.889V80zm8.889 0H80v8.889h-8.889V80zM80 80h8.889v8.889H80V80zm8.889 0h8.889v8.889h-8.889V80zm8.889 0h8.889v8.889h-8.889V80zm8.889 0h8.889v8.889h-8.889V80zm8.889 0h8.888v8.889h-8.888V80zm8.888 0h8.889v8.889h-8.889V80zm8.889 0h8.889v8.889h-8.889V80zm8.889 0h8.889v8.889h-8.889V80zm8.889 0H160v8.889h-8.889V80zM0 88.889h8.889v8.889H0v-8.889zm8.889 0h8.889v8.889H8.889v-8.889zm8.889 0h8.889v8.889h-8.889v-8.889zm8.889 0h8.889v8.889h-8.889v-8.889zm8.889 0h8.888v8.889h-8.888v-8.889zm8.888 0h8.889v8.889h-8.889v-8.889zm8.889 0h8.889v8.889h-8.889v-8.889zm8.889 0h8.889v8.889h-8.889v-8.889zm8.889 0H80v8.889h-8.889v-8.889zm8.889 0h8.889v8.889H80v-8.889zm8.889 0h8.889v8.889h-8.889v-8.889zm8.889 0h8.889v8.889h-8.889v-8.889zm8.889 0h8.889v8.889h-8.889v-8.889zm8.889 0h8.888v8.889h-8.888v-8.889zm8.888 0h8.889v8.889h-8.889v-8.889zm8.889 0h8.889v8.889h-8.889v-8.889zm8.889 0h8.889v8.889h-8.889v-8.889zm8.889 0H160v8.889h-8.889v-8.889zM0 97.778h8.889v8.889H0v-8.889zm8.889 0h8.889v8.889H8.889v-8.889zm8.889 0h8.889v8.889h-8.889v-8.889zm8.889 0h8.889v8.889h-8.889v-8.889zm8.889 0h8.888v8.889h-8.888v-8.889zm8.888 0h8.889v8.889h-8.889v-8.889zm8.889 0h8.889v8.889h-8.889v-8.889zm8.889 0h8.889v8.889h-8.889v-8.889zm8.889 0H80v8.889h-8.889v-8.889zm8.889 0h8.889v8.889H80v-8.889zm8.889 0h8.889v8.889h-8.889v-8.889zm8.889 0h8.889v8.889h-8.889v-8.889zm8.889 0h8.889v8.889h-8.889v-8.889zm8.889 0h8.888v8.889h-8.888v-8.889zm8.888 0h8.889v8.889h-8.889v-8.889zm8.889 0h8.889v8.889h-8.889v-8.889zm8.889 0h8.889v8.889h-8.889v-8.889zm8.889 0H160v8.889h-8.889v-8.889zM8.889 106.667h8.889v8.889H8.889v-8.889zm8.889 0h8.889v8.889h-8.889v-8.889zm8.889 0h8.889v8.889h-8.889v-8.889zm8.889 0h8.888v8.889h-8.888v-8.889zm8.888 0h8.889v8.889h-8.889v-8.889zm8.889 0h8.889v8.889h-8.889v-8.889zm8.889 0h8.889v8.889h-8.889v-8.889zm8.889 0H80v8.889h-8.889v-8.889zm8.889 0h8.889v8.889H80v-8.889zm8.889 0h8.889v8.889h-8.889v-8.889zm8.889 0h8.889v8.889h-8.889v-8.889zm8.889 0h8.889v8.889h-8.889v-8.889zm8.889 0h8.888v8.889h-8.888v-8.889zm8.888 0h8.889v8.889h-8.889v-8.889zm8.889 0h8.889v8.889h-8.889v-8.889zm8.889 0h8.889v8.889h-8.889v-8.889zm-124.444 8.889h8.889v8.888h-8.889v-8.888zm8.889 0h8.889v8.888h-8.889v-8.888zm8.889 0h8.888v8.888h-8.888v-8.888zm8.888 0h8.889v8.888h-8.889v-8.888zm8.889 0h8.889v8.888h-8.889v-8.888zm17.778 0H80v8.888h-8.889v-8.888zm8.889 0h8.889v8.888H80v-8.888zm17.778 0h8.889v8.888h-8.889v-8.888zm8.889 0h8.889v8.888h-8.889v-8.888zm8.889 0h8.888v8.888h-8.888v-8.888zm8.888 0h8.889v8.888h-8.889v-8.888zm8.889 0h8.889v8.888h-8.889v-8.888zm-106.666 8.888h8.889v8.889h-8.889v-8.889zm8.889 0h8.888v8.889h-8.888v-8.889zm35.555 0H80v8.889h-8.889v-8.889zm8.889 0h8.889v8.889H80v-8.889zm35.556 0h8.888v8.889h-8.888v-8.889zm8.888 0h8.889v8.889h-8.889v-8.889zm-62.222 8.889h8.889v8.889h-8.889v-8.889zm8.889 0H80v8.889h-8.889v-8.889zm8.889 0h8.889v8.889H80v-8.889zm8.889 0h8.889v8.889h-8.889v-8.889zm-35.556 8.889h8.889v8.889h-8.889v-8.889zm8.889 0h8.889v8.889h-8.889v-8.889zm8.889 0H80v8.889h-8.889v-8.889zm8.889 0h8.889v8.889H80v-8.889zm8.889 0h8.889v8.889h-8.889v-8.889zm8.889 0h8.889v8.889h-8.889v-8.889zm-53.334 8.889h8.889V160h-8.889v-8.889zm8.889 0h8.889V160h-8.889v-8.889zm8.889 0h8.889V160h-8.889v-8.889zm8.889 0H80V160h-8.889v-8.889zm8.889 0h8.889V160H80v-8.889zm8.889 0h8.889V160h-8.889v-8.889zm8.889 0h8.889V160h-8.889v-8.889zm8.889 0h8.889V160h-8.889v-8.889z"/></g></svg>